# This file uses centimeters as units for non-parametric coordinates.

mtllib reloj.mtl
g default
v 9.961060 9.776003 -0.572056
v 9.745980 11.821659 -0.626484
v 9.110130 13.777897 -0.678533
v 8.081300 15.559246 -0.725928
v 6.704470 17.087836 -0.766599
v 5.039800 18.296858 -0.798767
v 3.160040 19.133482 -0.821026
v 1.147360 19.561141 -0.832405
v -0.910290 19.561141 -0.832405
v -2.922970 19.133482 -0.821026
v -4.802720 18.296858 -0.798767
v -6.467390 17.087836 -0.766599
v -7.844230 15.559246 -0.725928
v -8.873050 13.777897 -0.678533
v -9.508900 11.821650 -0.626484
v -9.723980 9.776003 -0.572056
v -9.508900 7.730348 -0.517628
v -8.873050 5.774110 -0.465579
v -7.844230 3.992760 -0.418184
v -6.467390 2.464171 -0.377513
v -4.802720 1.255149 -0.345346
v -2.922970 0.418525 -0.323086
v -0.910280 -0.009134 -0.311707
v 1.147360 -0.009134 -0.311707
v 3.160050 0.418525 -0.323086
v 5.039800 1.255149 -0.345346
v 6.704470 2.464171 -0.377513
v 8.081300 3.992760 -0.418184
v 9.110130 5.774110 -0.465579
v 9.745980 7.730358 -0.517628
v 9.961060 9.796946 0.215065
v 9.745980 11.842602 0.160638
v 9.110130 13.798840 0.108589
v 8.081300 15.580189 0.061193
v 6.704470 17.108779 0.020523
v 5.039800 18.317801 -0.011645
v 3.160040 19.154424 -0.033905
v 1.147360 19.582084 -0.045283
v -0.910290 19.582084 -0.045283
v -2.922970 19.154424 -0.033905
v -4.802720 18.317801 -0.011645
v -6.467390 17.108779 0.020523
v -7.844230 15.580189 0.061193
v -8.873050 13.798840 0.108589
v -9.508900 11.842592 0.160638
v -9.723980 9.796946 0.215065
v -9.508900 7.751290 0.269493
v -8.873050 5.795052 0.321542
v -7.844230 4.013703 0.368938
v -6.467390 2.485114 0.409608
v -4.802720 1.276091 0.441776
v -2.922970 0.439467 0.464036
v -0.910280 0.011809 0.475414
v 1.147360 0.011809 0.475414
v 3.160050 0.439467 0.464036
v 5.039800 1.276091 0.441776
v 6.704470 2.485114 0.409608
v 8.081300 4.013703 0.368938
v 9.110130 5.795052 0.321542
v 9.745980 7.751300 0.269493
vt 0.492450 0.000500
vt 0.589870 0.000500
vt 0.589870 0.999500
vt 0.492450 0.999500
vt 0.683040 0.000500
vt 0.683040 0.999500
vt 0.767880 0.000500
vt 0.767880 0.999500
vt 0.840690 0.000500
vt 0.840690 0.999500
vt 0.173260 0.000500
vt 0.256070 0.000500
vt 0.256070 0.999500
vt 0.173260 0.999500
vt 0.349590 0.000500
vt 0.349590 0.999500
vt 0.449720 0.000500
vt 0.449720 0.999500
vt 0.552080 0.000500
vt 0.552080 0.999500
vt 0.652210 0.000500
vt 0.652210 0.999500
vt 0.745730 0.000500
vt 0.745730 0.999500
vt 0.828550 0.000500
vt 0.828550 0.999500
vt 0.159310 0.000500
vt 0.232120 0.000500
vt 0.232120 0.999500
vt 0.159310 0.999500
vt 0.316960 0.000500
vt 0.316960 0.999500
vt 0.410120 0.000500
vt 0.410120 0.999500
vt 0.507550 0.000500
vt 0.507550 0.999500
vt 0.604980 0.000500
vt 0.604980 0.999500
vt 0.698150 0.000500
vt 0.698150 0.999500
vt 0.782990 0.000500
vt 0.782990 0.999500
vt 0.855790 0.000500
vt 0.855790 0.999500
vt 0.171450 0.000500
vt 0.254270 0.000500
vt 0.254270 0.999500
vt 0.171450 0.999500
vt 0.347790 0.000500
vt 0.347790 0.999500
vt 0.447920 0.000500
vt 0.447920 0.999500
vt 0.550280 0.000500
vt 0.550280 0.999500
vt 0.650410 0.000500
vt 0.650410 0.999500
vt 0.743930 0.000500
vt 0.743930 0.999500
vt 0.826740 0.000500
vt 0.826740 0.999500
vt 0.144210 0.000500
vt 0.217010 0.000500
vt 0.217010 0.999500
vt 0.144210 0.999500
vt 0.301850 0.000500
vt 0.301850 0.999500
vt 0.395020 0.000500
vt 0.395020 0.999500
vt 0.552080 0.026410
vt 0.652210 0.046780
vt 0.449720 0.026410
vt 0.349590 0.046780
vt 0.745730 0.086630
vt 0.256070 0.086630
vt 0.828550 0.144210
vt 0.173260 0.144210
vt 0.897040 0.217010
vt 0.104760 0.217010
vt 0.948230 0.301850
vt 0.053580 0.301850
vt 0.979860 0.395020
vt 0.021940 0.395020
vt 0.990560 0.492450
vt 0.011240 0.492450
vt 0.979860 0.589880
vt 0.021940 0.589870
vt 0.948230 0.683040
vt 0.053580 0.683040
vt 0.897040 0.767880
vt 0.104760 0.767880
vt 0.828550 0.840690
vt 0.173260 0.840690
vt 0.745730 0.898270
vt 0.256070 0.898270
vt 0.652210 0.938110
vt 0.349590 0.938110
vt 0.552080 0.958480
vt 0.449720 0.958480
vt 0.447920 0.958480
vt 0.347790 0.938110
vt 0.550280 0.958480
vt 0.447920 0.026410
vt 0.650410 0.046780
vt 0.347790 0.046780
vt 0.650410 0.938110
vt 0.743930 0.898270
vt 0.254270 0.898270
vt 0.826740 0.840690
vt 0.171450 0.840690
vt 0.895240 0.767880
vt 0.102960 0.767880
vt 0.946420 0.683040
vt 0.051770 0.683040
vt 0.978060 0.589870
vt 0.020140 0.589880
vt 0.988760 0.492450
vt 0.009440 0.492450
vt 0.978060 0.395020
vt 0.020140 0.395020
vt 0.946420 0.301850
vt 0.051770 0.301850
vt 0.895240 0.217010
vt 0.102960 0.217010
vt 0.826740 0.144210
vt 0.171450 0.144210
vt 0.743930 0.086630
vt 0.254270 0.086630
vt 0.550280 0.026410
vn 0.999387 0.034998 -0.000931
vn 0.970269 0.241944 -0.006437
vn 0.984827 0.173478 -0.004616
vn 0.999387 -0.034998 0.000931
vn 0.970269 0.241944 -0.006437
vn 0.898745 0.438317 -0.011662
vn 0.927227 0.374366 -0.009961
vn 0.984827 0.173478 -0.004616
vn 0.898745 0.438317 -0.011662
vn 0.787941 0.615533 -0.016377
vn 0.829100 0.558902 -0.014870
vn 0.927227 0.374366 -0.009961
vn 0.787941 0.615533 -0.016377
vn 0.642699 0.765848 -0.020377
vn 0.694740 0.719006 -0.019130
vn 0.829100 0.558902 -0.014870
vn 0.642699 0.765848 -0.020377
vn 0.469371 0.882689 -0.023485
vn 0.530018 0.847687 -0.022554
vn 0.694740 0.719006 -0.019130
vn 0.469371 0.882689 -0.023485
vn 0.275531 0.960952 -0.025568
vn 0.342131 0.939320 -0.024992
vn 0.530018 0.847687 -0.022554
vn 0.275531 0.960952 -0.025568
vn 0.069640 0.997219 -0.026533
vn 0.139290 0.989901 -0.026338
vn 0.342131 0.939320 -0.024992
vn 0.069640 0.997219 -0.026533
vn -0.139290 0.989901 -0.026338
vn -0.069640 0.997219 -0.026533
vn 0.139290 0.989901 -0.026338
vn -0.139290 0.989901 -0.026338
vn -0.342131 0.939320 -0.024992
vn -0.275531 0.960952 -0.025568
vn -0.069640 0.997219 -0.026533
vn -0.342131 0.939320 -0.024992
vn -0.530018 0.847687 -0.022554
vn -0.469371 0.882689 -0.023485
vn -0.275531 0.960952 -0.025568
vn -0.530018 0.847687 -0.022554
vn -0.694740 0.719006 -0.019130
vn -0.642699 0.765848 -0.020377
vn -0.469371 0.882689 -0.023485
vn -0.694740 0.719006 -0.019130
vn -0.829100 0.558902 -0.014870
vn -0.787941 0.615533 -0.016377
vn -0.642699 0.765848 -0.020377
vn -0.829100 0.558902 -0.014870
vn -0.927227 0.374366 -0.009961
vn -0.898745 0.438317 -0.011662
vn -0.787941 0.615533 -0.016377
vn -0.927227 0.374366 -0.009961
vn -0.984827 0.173478 -0.004616
vn -0.970269 0.241944 -0.006437
vn -0.898745 0.438317 -0.011662
vn -0.984827 0.173478 -0.004616
vn -0.999387 -0.034998 0.000931
vn -0.999387 0.034998 -0.000931
vn -0.970269 0.241944 -0.006437
vn -0.999387 -0.034998 0.000931
vn -0.970269 -0.241944 0.006437
vn -0.984827 -0.173478 0.004616
vn -0.999387 0.034998 -0.000931
vn -0.970269 -0.241944 0.006437
vn -0.898745 -0.438317 0.011662
vn -0.927227 -0.374366 0.009961
vn -0.984827 -0.173478 0.004616
vn -0.898745 -0.438317 0.011662
vn -0.787941 -0.615533 0.016377
vn -0.829100 -0.558902 0.014870
vn -0.927227 -0.374366 0.009961
vn -0.787941 -0.615533 0.016377
vn -0.642699 -0.765848 0.020377
vn -0.694740 -0.719006 0.019130
vn -0.829100 -0.558902 0.014870
vn -0.642699 -0.765848 0.020377
vn -0.469371 -0.882689 0.023485
vn -0.530018 -0.847687 0.022554
vn -0.694740 -0.719006 0.019130
vn -0.469371 -0.882689 0.023485
vn -0.275531 -0.960952 0.025568
vn -0.342131 -0.939320 0.024992
vn -0.530018 -0.847687 0.022554
vn -0.275531 -0.960952 0.025568
vn -0.069640 -0.997219 0.026533
vn -0.139290 -0.989901 0.026338
vn -0.342131 -0.939320 0.024992
vn -0.069640 -0.997219 0.026533
vn 0.139290 -0.989901 0.026338
vn 0.069640 -0.997219 0.026533
vn -0.139290 -0.989901 0.026338
vn 0.139290 -0.989901 0.026338
vn 0.342131 -0.939320 0.024992
vn 0.275531 -0.960952 0.025568
vn 0.069640 -0.997219 0.026533
vn 0.342131 -0.939320 0.024992
vn 0.530018 -0.847687 0.022554
vn 0.469371 -0.882689 0.023485
vn 0.275531 -0.960952 0.025568
vn 0.530018 -0.847687 0.022554
vn 0.694740 -0.719006 0.019130
vn 0.642699 -0.765848 0.020377
vn 0.469371 -0.882689 0.023485
vn 0.694740 -0.719006 0.019130
vn 0.829100 -0.558902 0.014870
vn 0.787941 -0.615533 0.016377
vn 0.642699 -0.765848 0.020377
vn 0.829100 -0.558902 0.014870
vn 0.927227 -0.374366 0.009961
vn 0.898745 -0.438317 0.011662
vn 0.787941 -0.615533 0.016377
vn 0.927227 -0.374366 0.009961
vn 0.984827 -0.173478 0.004616
vn 0.970269 -0.241944 0.006437
vn 0.898745 -0.438317 0.011662
vn 0.984827 -0.173478 0.004616
vn 0.999387 0.034998 -0.000931
vn 0.999387 -0.034998 0.000931
vn 0.970269 -0.241944 0.006437
vn 0.000000 -0.026597 -0.999646
vn 0.000000 -0.026597 -0.999646
vn 0.000000 -0.026597 -0.999646
vn 0.000000 -0.026597 -0.999646
vn 0.000000 -0.026597 -0.999646
vn 0.000000 -0.026597 -0.999646
vn 0.000000 -0.026597 -0.999646
vn 0.000000 -0.026597 -0.999646
vn 0.000000 -0.026597 -0.999646
vn 0.000000 -0.026597 -0.999646
vn 0.000000 -0.026597 -0.999646
vn 0.000000 -0.026597 -0.999646
vn 0.000000 -0.026597 -0.999646
vn 0.000000 -0.026597 -0.999646
vn 0.000000 -0.026597 -0.999646
vn 0.000000 -0.026597 -0.999646
vn 0.000000 -0.026597 -0.999646
vn 0.000000 -0.026597 -0.999646
vn 0.000000 -0.026597 -0.999646
vn 0.000000 -0.026597 -0.999646
vn 0.000000 -0.026597 -0.999646
vn 0.000000 -0.026597 -0.999646
vn 0.000000 -0.026597 -0.999646
vn 0.000000 -0.026597 -0.999646
vn 0.000000 -0.026597 -0.999646
vn 0.000000 -0.026597 -0.999646
vn 0.000000 -0.026597 -0.999646
vn 0.000000 -0.026597 -0.999646
vn 0.000000 -0.026597 -0.999646
vn 0.000000 -0.026597 -0.999646
vn 0.000000 -0.026597 -0.999646
vn 0.000000 -0.026597 -0.999646
vn 0.000000 -0.026597 -0.999646
vn 0.000000 -0.026597 -0.999646
vn 0.000000 -0.026597 -0.999646
vn 0.000000 -0.026597 -0.999646
vn 0.000000 -0.026597 -0.999646
vn 0.000000 -0.026597 -0.999646
vn 0.000000 -0.026597 -0.999646
vn 0.000000 -0.026597 -0.999646
vn 0.000000 -0.026597 -0.999646
vn 0.000000 -0.026597 -0.999646
vn 0.000000 -0.026597 -0.999646
vn 0.000000 -0.026597 -0.999646
vn 0.000000 -0.026597 -0.999646
vn 0.000000 -0.026597 -0.999646
vn 0.000000 -0.026597 -0.999646
vn 0.000000 -0.026597 -0.999646
vn 0.000000 -0.026597 -0.999646
vn 0.000000 -0.026597 -0.999646
vn 0.000000 -0.026597 -0.999646
vn 0.000000 -0.026597 -0.999646
vn 0.000000 -0.026597 -0.999646
vn 0.000000 -0.026597 -0.999646
vn 0.000000 -0.026597 -0.999646
vn 0.000000 -0.026597 -0.999646
vn 0.000000 -0.026597 -0.999646
vn 0.000000 -0.026597 -0.999646
vn 0.000000 -0.026597 -0.999646
vn 0.000000 -0.026597 -0.999646
vn 0.000000 -0.026597 -0.999646
vn 0.000000 -0.026597 -0.999646
vn 0.000000 -0.026597 -0.999646
vn 0.000000 -0.026597 -0.999646
vn 0.000000 -0.026597 -0.999646
vn 0.000000 -0.026597 -0.999646
vn 0.000000 -0.026597 -0.999646
vn 0.000000 -0.026597 -0.999646
vn 0.000000 -0.026597 -0.999646
vn 0.000000 -0.026597 -0.999646
vn 0.000000 -0.026597 -0.999646
vn 0.000000 -0.026597 -0.999646
vn 0.000000 -0.026597 -0.999646
vn 0.000000 -0.026597 -0.999646
vn 0.000000 -0.026597 -0.999646
vn 0.000000 -0.026597 -0.999646
vn 0.000000 -0.026597 -0.999646
vn 0.000000 -0.026597 -0.999646
vn 0.000000 -0.026597 -0.999646
vn 0.000000 -0.026597 -0.999646
vn 0.000000 -0.026597 -0.999646
vn 0.000000 -0.026597 -0.999646
vn 0.000000 -0.026597 -0.999646
vn 0.000000 -0.026597 -0.999646
vn 0.000000 0.026597 0.999646
vn 0.000000 0.026597 0.999646
vn 0.000000 0.026597 0.999646
vn 0.000000 0.026597 0.999646
vn 0.000000 0.026597 0.999646
vn 0.000000 0.026597 0.999646
vn 0.000000 0.026597 0.999646
vn 0.000000 0.026597 0.999646
vn 0.000000 0.026597 0.999646
vn 0.000000 0.026597 0.999646
vn 0.000000 0.026597 0.999646
vn 0.000000 0.026597 0.999646
vn 0.000000 0.026597 0.999646
vn 0.000000 0.026597 0.999646
vn 0.000000 0.026597 0.999646
vn 0.000000 0.026597 0.999646
vn 0.000000 0.026597 0.999646
vn 0.000000 0.026597 0.999646
vn 0.000000 0.026597 0.999646
vn 0.000000 0.026597 0.999646
vn 0.000000 0.026597 0.999646
vn 0.000000 0.026597 0.999646
vn 0.000000 0.026597 0.999646
vn 0.000000 0.026597 0.999646
vn 0.000000 0.026597 0.999646
vn 0.000000 0.026597 0.999646
vn 0.000000 0.026597 0.999646
vn 0.000000 0.026597 0.999646
vn 0.000000 0.026597 0.999646
vn 0.000000 0.026597 0.999646
vn 0.000000 0.026597 0.999646
vn 0.000000 0.026597 0.999646
vn 0.000000 0.026597 0.999646
vn 0.000000 0.026597 0.999646
vn 0.000000 0.026597 0.999646
vn 0.000000 0.026597 0.999646
vn 0.000000 0.026597 0.999646
vn 0.000000 0.026597 0.999646
vn 0.000000 0.026597 0.999646
vn 0.000000 0.026597 0.999646
vn 0.000000 0.026597 0.999646
vn 0.000000 0.026597 0.999646
vn 0.000000 0.026597 0.999646
vn 0.000000 0.026597 0.999646
vn 0.000000 0.026597 0.999646
vn 0.000000 0.026597 0.999646
vn 0.000000 0.026597 0.999646
vn 0.000000 0.026597 0.999646
vn 0.000000 0.026597 0.999646
vn 0.000000 0.026597 0.999646
vn 0.000000 0.026597 0.999646
vn 0.000000 0.026597 0.999646
vn 0.000000 0.026597 0.999646
vn 0.000000 0.026597 0.999646
vn 0.000000 0.026597 0.999646
vn 0.000000 0.026597 0.999646
vn 0.000000 0.026597 0.999646
vn 0.000000 0.026597 0.999646
vn 0.000000 0.026597 0.999646
vn 0.000000 0.026597 0.999646
vn 0.000000 0.026597 0.999646
vn 0.000000 0.026597 0.999646
vn 0.000000 0.026597 0.999646
vn 0.000000 0.026597 0.999646
vn 0.000000 0.026597 0.999646
vn 0.000000 0.026597 0.999646
vn 0.000000 0.026597 0.999646
vn 0.000000 0.026597 0.999646
vn 0.000000 0.026597 0.999646
vn 0.000000 0.026597 0.999646
vn 0.000000 0.026597 0.999646
vn 0.000000 0.026597 0.999646
vn 0.000000 0.026597 0.999646
vn 0.000000 0.026597 0.999646
vn 0.000000 0.026597 0.999646
vn 0.000000 0.026597 0.999646
vn 0.000000 0.026597 0.999646
vn 0.000000 0.026597 0.999646
vn 0.000000 0.026597 0.999646
vn 0.000000 0.026597 0.999646
vn 0.000000 0.026597 0.999646
vn 0.000000 0.026597 0.999646
vn 0.000000 0.026597 0.999646
vn 0.000000 0.026597 0.999646
s off
g body
usemtl lambert3SG
f 1/1/1 2/2/2 32/3/3 31/4/4
f 2/2/5 3/5/6 33/6/7 32/3/8
f 3/5/9 4/7/10 34/8/11 33/6/12
f 4/7/13 5/9/14 35/10/15 34/8/16
f 5/11/17 6/12/18 36/13/19 35/14/20
f 6/12/21 7/15/22 37/16/23 36/13/24
f 7/15/25 8/17/26 38/18/27 37/16/28
f 8/17/29 9/19/30 39/20/31 38/18/32
f 9/19/33 10/21/34 40/22/35 39/20/36
f 10/21/37 11/23/38 41/24/39 40/22/40
f 11/23/41 12/25/42 42/26/43 41/24/44
f 12/27/45 13/28/46 43/29/47 42/30/48
f 13/28/49 14/31/50 44/32/51 43/29/52
f 14/31/53 15/33/54 45/34/55 44/32/56
f 15/33/57 16/35/58 46/36/59 45/34/60
f 16/35/61 17/37/62 47/38/63 46/36/64
f 17/37/65 18/39/66 48/40/67 47/38/68
f 18/39/69 19/41/70 49/42/71 48/40/72
f 19/41/73 20/43/74 50/44/75 49/42/76
f 20/45/77 21/46/78 51/47/79 50/48/80
f 21/46/81 22/49/82 52/50/83 51/47/84
f 22/49/85 23/51/86 53/52/87 52/50/88
f 23/51/89 24/53/90 54/54/91 53/52/92
f 24/53/93 25/55/94 55/56/95 54/54/96
f 25/55/97 26/57/98 56/58/99 55/56/100
f 26/57/101 27/59/102 57/60/103 56/58/104
f 27/61/105 28/62/106 58/63/107 57/64/108
f 28/62/109 29/65/110 59/66/111 58/63/112
f 29/65/113 30/67/114 60/68/115 59/66/116
f 30/67/117 1/1/118 31/4/119 60/68/120
f 23/69/121 22/70/122 24/71/123
f 24/71/124 22/70/125 25/72/126
f 21/73/127 25/72/128 22/70/129
f 25/72/130 21/73/131 26/74/132
f 20/75/133 26/74/134 21/73/135
f 26/74/136 20/75/137 27/76/138
f 19/77/139 27/76/140 20/75/141
f 27/76/142 19/77/143 28/78/144
f 18/79/145 28/78/146 19/77/147
f 28/78/148 18/79/149 29/80/150
f 17/81/151 29/80/152 18/79/153
f 29/80/154 17/81/155 30/82/156
f 16/83/157 30/82/158 17/81/159
f 30/82/160 16/83/161 1/84/162
f 1/84/163 15/85/164 2/86/165
f 14/87/166 2/86/167 15/85/168
f 2/86/169 14/87/170 3/88/171
f 3/88/172 14/87/173 13/89/174
f 3/88/175 13/89/176 4/90/177
f 12/91/178 4/90/179 13/89/180
f 4/90/181 12/91/182 5/92/183
f 5/92/184 12/91/185 11/93/186
f 5/92/187 11/93/188 6/94/189
f 10/95/190 6/94/191 11/93/192
f 6/94/193 10/95/194 7/96/195
f 7/96/196 10/95/197 9/97/198
f 7/96/199 9/97/200 8/98/201
f 15/85/202 1/84/203 16/83/204
f 39/99/205 40/100/206 38/101/207
f 53/102/208 55/103/209 52/104/210
f 38/101/211 40/100/212 37/105/213
f 37/105/214 40/100/215 36/106/216
f 41/107/217 36/106/218 40/100/219
f 36/106/220 41/107/221 35/108/222
f 42/109/223 35/108/224 41/107/225
f 34/110/226 35/108/227 42/109/228
f 43/111/229 34/110/230 42/109/231
f 34/110/232 43/111/233 33/112/234
f 44/113/235 33/112/236 43/111/237
f 32/114/238 33/112/239 44/113/240
f 45/115/241 32/114/242 44/113/243
f 32/114/244 45/115/245 31/116/246
f 46/117/247 31/116/248 45/115/249
f 31/116/250 46/117/251 60/118/252
f 47/119/253 60/118/254 46/117/255
f 60/118/256 47/119/257 59/120/258
f 48/121/259 59/120/260 47/119/261
f 59/120/262 48/121/263 58/122/264
f 49/123/265 58/122/266 48/121/267
f 58/122/268 49/123/269 57/124/270
f 50/125/271 57/124/272 49/123/273
f 57/124/274 50/125/275 56/126/276
f 51/127/277 56/126/278 50/125/279
f 56/126/280 51/127/281 52/104/282
f 56/126/283 52/104/284 55/103/285
f 55/103/286 53/102/287 54/128/288
